<svg width="100" height="100" viewBox="0 0 100 100" fill="none" xmlns="http://www.w3.org/2000/svg">
<rect width="100" height="100" fill="white"/>
<path d="M17.6001 31.9999V24.7999C17.6001 22.8904 18.3587 21.059 19.7089 19.7087C21.0592 18.3585 22.8905 17.5999 24.8001 17.5999H32.0001M68.0001 17.5999H75.2001C77.1097 17.5999 78.941 18.3585 80.2913 19.7087C81.6415 21.059 82.4001 22.8904 82.4001 24.7999V31.9999M82.4001 67.9999V75.1999C82.4001 77.1095 81.6415 78.9408 80.2913 80.2911C78.941 81.6413 77.1097 82.3999 75.2001 82.3999H68.0001M32.0001 82.3999H24.8001C22.8905 82.3999 21.0592 81.6413 19.7089 80.2911C18.3587 78.9408 17.6001 77.1095 17.6001 75.1999V67.9999M35.6001 31.9999V67.9999M50.0001 31.9999V67.9999M68.0001 31.9999V67.9999" stroke="black" stroke-width="7.2" stroke-linecap="round" stroke-linejoin="round"/>
</svg>
